<svg width="393" height="239" viewBox="0 0 393 239" fill="none" xmlns="http://www.w3.org/2000/svg">
<g clip-path="url(#clip0_127_3446)">
<rect width="393" height="238.473" fill="#00835B"/>
<path opacity="0.3" d="M81.6037 233.41C81.6037 233.41 55.7506 219.352 49.0072 186.737C42.2638 154.122 71.4852 124.32 74.2966 108.013C77.1081 91.7055 70.9012 71.464 96.7746 55.6934C122.648 39.9228 168.711 45.5964 186.137 41.669C203.562 37.7417 223.779 10.7326 258.636 16.9158C293.494 23.099 327.225 41.6623 328.882 82.1453C330.539 122.628 317.643 123.756 330.573 145.69C343.503 167.623 348.555 182.803 342.375 205.293C336.196 227.784 323.266 233.96 323.266 233.96L81.6037 233.41Z" fill="#E7EAEC"/>
<path d="M135.577 226.096C133.974 224.411 110.383 177.174 136.65 133.878C162.917 90.5814 228.857 95.6367 255.118 112.508C281.378 129.379 294.254 151.313 296.936 174.34C299.619 197.368 281.922 233.38 281.922 233.38L135.577 226.096Z" fill="#F3F3F3" fill-opacity="0.5"/>
<path d="M320.523 124.647H290.221C288.346 124.647 286.826 126.168 286.826 128.044V143.183C286.826 145.059 288.346 146.58 290.221 146.58H320.523C322.398 146.58 323.918 145.059 323.918 143.183V128.044C323.918 126.168 322.398 124.647 320.523 124.647Z" fill="#FFB800"/>
<path d="M305.372 155.153L310.174 143.765H300.571L305.372 155.153Z" fill="#FFB800"/>
<path d="M305.257 131.85H313.936V133.12L318.187 130.667L313.936 128.214V129.485H305.257V131.85Z" fill="#004B3B"/>
<path d="M299.932 139.072L299.525 139.221C298.732 138.294 298.073 137.26 297.569 136.15C297.146 135.011 296.917 133.81 296.89 132.596L297.188 132.467L295.355 128.078C294.998 128.354 294.696 128.695 294.465 129.083C293.426 130.843 293.528 133.534 294.574 136.163C295.62 138.793 296.733 141.144 298.771 142.618C299.19 142.965 299.675 143.224 300.197 143.378C300.718 143.532 301.266 143.579 301.806 143.515L299.932 139.072Z" fill="#004B3B"/>
<path d="M301.25 138.554L300.68 138.758L302.561 143.256C302.756 143.192 302.944 143.11 303.124 143.012C303.358 142.884 303.538 142.676 303.629 142.426C303.72 142.176 303.717 141.901 303.62 141.653L302.642 139.186C302.539 138.92 302.335 138.705 302.075 138.586C301.815 138.468 301.519 138.457 301.25 138.554Z" fill="#004B3B"/>
<path d="M296.775 127.281C296.521 127.376 296.276 127.492 296.042 127.628L297.916 132.112L298.547 131.854C298.808 131.742 299.016 131.533 299.127 131.271C299.239 131.009 299.245 130.714 299.145 130.448L298.16 127.961C298.065 127.688 297.866 127.465 297.607 127.337C297.347 127.21 297.049 127.19 296.775 127.281Z" fill="#004B3B"/>
<path d="M126.818 218.51V167.903C126.818 167.903 126.255 154.266 133.426 150.332C140.597 146.398 170.776 148.504 170.776 148.504V218.49L126.818 218.51Z" fill="#004436"/>
<path d="M180.236 101.124C180.236 101.124 178.409 116.452 177.703 117.716L177.024 118.98L173.527 121.372C173.527 121.372 180.27 130.932 188.555 132.474C196.84 134.017 196.147 129.077 196.147 129.077L194.877 126.4L196.568 111.784C196.568 111.784 181.499 104.922 180.236 101.124Z" fill="#FF9D8C"/>
<path d="M195.97 121.603C195.97 121.603 197.94 126.149 199.766 136.837C201.593 147.525 203.277 165.511 203.698 177.884C204.119 190.257 204.377 218.51 204.377 218.51H241.048C241.469 218.51 244.002 204.594 244.002 204.594C244.002 204.594 228.003 190.862 227.175 188.613C226.611 187.118 226.896 159.327 224.506 146.533C222.115 133.738 219.025 131.163 212.547 127.963C205.871 124.681 195.97 121.603 195.97 121.603Z" fill="#002019"/>
<path d="M215.081 202.408C214.99 202.408 214.904 202.372 214.84 202.309C214.777 202.245 214.741 202.159 214.741 202.068C214.741 201.063 214.557 186.78 214.388 172.967C214.218 159.153 214.034 144.877 214.034 143.865C214.034 143.775 214.07 143.688 214.134 143.624C214.197 143.561 214.284 143.525 214.374 143.525C214.464 143.525 214.55 143.561 214.614 143.624C214.678 143.688 214.714 143.775 214.714 143.865C214.714 144.87 214.897 159.153 215.067 172.96C215.237 186.767 215.42 201.056 215.42 202.068C215.419 202.158 215.382 202.243 215.319 202.307C215.256 202.37 215.17 202.406 215.081 202.408Z" fill="#E7EAEC"/>
<path d="M142.017 198.965L141.738 218.507H184.446C184.446 218.507 186.273 201.921 185.574 200.371C184.874 198.822 142.017 198.965 142.017 198.965Z" fill="#002019"/>
<g style="mix-blend-mode:multiply">
<path d="M189.553 117.297C191.37 118.664 193.386 119.746 195.529 120.504L196.534 111.814C196.534 111.814 185.241 106.636 181.411 102.784C182.212 107.16 184.181 112.955 189.553 117.297Z" fill="#8E9BBB"/>
</g>
<path d="M209.742 72.5866C211.633 76.073 212.826 79.8951 213.253 83.8387C213.817 90.0219 213.253 105.908 208.194 112.655C203.135 119.402 192.575 117.411 187.821 113.335C183.434 109.598 179.108 105.466 177.988 97.3126C176.867 89.1589 180.371 73.6941 190.347 70.4598C200.323 67.2255 209.742 72.5866 209.742 72.5866Z" fill="#FF9D8C"/>
<path d="M222.421 209.679C222.421 209.679 221.925 209.679 221.172 209.679H220.594L218.095 209.611H217.498C216.615 209.611 215.861 209.699 215.155 209.658C215.005 209.658 214.788 209.658 214.611 209.658C214.537 209.665 214.462 209.665 214.387 209.658C214.06 209.584 213.747 209.46 213.457 209.291C208.691 208.078 203.8 207.426 198.884 207.348C192.609 207.348 186.979 207.803 186.062 207.036C185.146 206.268 184.582 198.366 189.94 197.849L196.527 200.35C196.527 200.35 211.569 198.563 217.083 202.633C222.598 206.703 222.421 209.679 222.421 209.679Z" fill="#FF9D8C"/>
<path d="M215.128 209.606C214.978 209.606 214.761 209.606 214.584 209.606C214.412 209.334 214.219 209.075 214.007 208.832C212.309 207.099 208.208 205.978 206.721 205.618C206.655 205.602 206.599 205.561 206.563 205.503C206.528 205.446 206.516 205.378 206.53 205.312C206.538 205.279 206.553 205.248 206.573 205.22C206.593 205.193 206.618 205.17 206.647 205.152C206.676 205.134 206.708 205.122 206.742 205.117C206.775 205.112 206.81 205.114 206.843 205.122C209.009 205.645 213.634 206.983 214.91 209.199C214.951 209.26 215.06 209.498 215.128 209.606Z" fill="#002019"/>
<path d="M218.089 209.575C217.892 209.575 217.688 209.575 217.491 209.575C215.637 206.178 212.608 205.227 208.86 204.017L208.636 203.943C208.604 203.932 208.575 203.915 208.55 203.893C208.524 203.871 208.504 203.844 208.489 203.814C208.474 203.784 208.465 203.752 208.463 203.718C208.461 203.685 208.465 203.652 208.476 203.62C208.487 203.588 208.504 203.559 208.526 203.534C208.548 203.509 208.574 203.488 208.604 203.473C208.634 203.458 208.667 203.45 208.7 203.447C208.733 203.445 208.767 203.449 208.799 203.46L209.016 203.535C212.975 204.785 216.167 205.804 218.089 209.575Z" fill="#002019"/>
<path d="M221.164 209.648H220.587C219.565 207.817 218.166 206.225 216.482 204.976C214.799 203.728 212.869 202.851 210.822 202.404C210.788 202.4 210.755 202.388 210.726 202.37C210.697 202.352 210.672 202.328 210.652 202.3C210.632 202.272 210.619 202.241 210.612 202.207C210.605 202.174 210.604 202.139 210.611 202.105C210.626 202.041 210.664 201.985 210.718 201.947C210.772 201.909 210.838 201.893 210.903 201.902C215.976 202.853 220.071 206.991 221.164 209.648Z" fill="#002019"/>
<path d="M181.356 90.3742C183.633 89.065 185.468 87.1062 186.626 84.7482C187.924 82.3299 188.577 79.6175 188.52 76.8731C188.52 76.8731 192.459 76.2411 198.361 78.001C204.262 79.7608 211.263 82.1458 217.185 78.7756C223.107 75.4054 223.086 69.99 220.207 67.7409C216.981 65.2201 210.584 66.7557 210.584 66.7557C210.584 66.7557 213.043 64.3639 211.705 62.9574C210.367 61.5509 205.525 63.3787 205.525 63.3787C205.525 63.3787 199.624 58.6699 188.453 59.2339C177.281 59.7979 171.944 67.5982 171.312 76.3227C170.681 85.0471 173.838 93.7512 173.838 93.7512L181.356 90.3742Z" fill="#121212"/>
<path d="M181.356 90.3742C183.633 89.065 185.468 87.1062 186.626 84.7482C187.924 82.3299 188.577 79.6175 188.52 76.8731C188.52 76.8731 192.459 76.2411 198.361 78.001C204.262 79.7608 211.263 82.1458 217.185 78.7756C223.107 75.4054 223.086 69.99 220.207 67.7409C216.981 65.2201 210.584 66.7557 210.584 66.7557C210.584 66.7557 213.043 64.3639 211.705 62.9574C210.367 61.5509 205.525 63.3787 205.525 63.3787C205.525 63.3787 199.624 58.6699 188.453 59.2339C177.281 59.7979 171.944 67.5982 171.312 76.3227C170.681 85.0471 173.838 93.7512 173.838 93.7512L181.356 90.3742Z" fill="black" fill-opacity="0.2"/>
<g style="mix-blend-mode:multiply">
<path d="M204.017 92.4863C203.386 94.0423 203.399 95.8837 203.243 97.5144C203.121 98.8054 202.883 100.307 204.065 101.177C204.628 101.591 207.29 102.712 205.919 103.623C205.29 103.884 204.6 103.962 203.929 103.847C203.515 103.847 203.1 103.847 202.693 103.779C202.285 103.711 201.817 103.616 201.382 103.609C201.327 103.611 201.274 103.631 201.231 103.665C201.188 103.7 201.157 103.747 201.143 103.8C201.129 103.853 201.132 103.909 201.151 103.96C201.171 104.012 201.207 104.055 201.253 104.085C202.048 104.498 202.932 104.708 203.827 104.696C204.559 104.779 205.299 104.65 205.959 104.323C206.2 104.236 206.416 104.091 206.587 103.9C206.757 103.709 206.878 103.478 206.937 103.229C206.939 102.927 206.863 102.63 206.715 102.366C206.567 102.103 206.354 101.883 206.095 101.727C205.565 101.333 204.914 101.15 204.377 100.762C203.63 100.232 203.698 99.3354 203.745 98.4997C203.868 96.502 204.329 94.5383 204.506 92.5475C204.506 92.2485 204.112 92.2485 204.017 92.4863Z" fill="#8E9BBB"/>
</g>
<path d="M209.763 97.1571C209.552 98.3462 208.69 99.1955 207.841 99.0325C206.992 98.8694 206.483 97.7958 206.673 96.6135C206.863 95.4313 207.746 94.5751 208.595 94.7382C209.444 94.9013 209.973 95.9748 209.763 97.1571Z" fill="#004B3B"/>
<path d="M199.012 96.2185C198.822 97.4959 197.919 98.4268 196.975 98.2569C196.031 98.087 195.461 96.9727 195.651 95.6953C195.841 94.4179 196.744 93.4938 197.688 93.6569C198.632 93.8199 199.203 94.9411 199.012 96.2185Z" fill="#004B3B"/>
<path d="M207.256 92.2763C207.935 92.385 208.58 92.2763 209.239 92.317L209.715 92.3646H209.66H209.762L210.013 92.4122C210.149 92.4461 210.285 92.5005 210.428 92.5345C210.559 92.5658 210.693 92.5841 210.828 92.5888L211.046 92.5549H210.91C211 92.5602 211.091 92.5602 211.181 92.5549C211.363 92.4995 211.517 92.3762 211.611 92.2105C211.704 92.0447 211.731 91.8493 211.684 91.6648C211.656 91.5611 211.607 91.4641 211.541 91.3794C211.541 91.3386 211.48 91.3046 211.453 91.2707L211.535 91.359L211.446 91.2435C211.409 91.1825 211.358 91.1312 211.297 91.094L211.134 90.9717C210.948 90.8557 210.744 90.7729 210.529 90.7271C210.134 90.628 209.728 90.5755 209.321 90.5708C208.921 90.5752 208.521 90.607 208.126 90.6659C207.758 90.7082 207.406 90.8388 207.1 91.0464C206.986 91.1158 206.895 91.2172 206.838 91.3381C206.781 91.4589 206.761 91.5938 206.781 91.7259C206.799 91.8545 206.853 91.9753 206.937 92.0741C207.021 92.1728 207.132 92.2454 207.256 92.2831V92.2763Z" fill="#004B3B"/>
<path d="M199.767 90.3939C199.677 90.3396 199.584 90.2919 199.488 90.2512C199.413 90.2172 199.196 90.1017 199.359 90.1901L199.176 90.0949C198.905 89.9619 198.62 89.8593 198.327 89.7892C197.683 89.6286 197.017 89.5826 196.357 89.6533C195.67 89.7069 195.003 89.916 194.408 90.2648C194.318 90.3135 194.234 90.3728 194.157 90.4415L194.021 90.6249V90.5638C193.93 90.6275 193.855 90.7129 193.804 90.8125C193.753 90.9121 193.727 91.0227 193.729 91.1345C193.729 91.2392 193.758 91.3419 193.812 91.4317C193.865 91.5214 193.943 91.5949 194.035 91.6441C194.142 91.6894 194.258 91.7126 194.374 91.7126C194.491 91.7126 194.607 91.6894 194.714 91.6441H194.361C194.535 91.6816 194.716 91.6816 194.891 91.6441C194.891 91.6441 195.081 91.5966 194.959 91.6441C194.836 91.6917 195.149 91.6441 195.183 91.6441C195.217 91.6441 195.434 91.6441 195.183 91.6441H195.305L195.624 91.6102C196.086 91.6102 196.548 91.5558 197.016 91.5422C197.485 91.5286 197.885 91.5422 198.32 91.5422H198.87C198.931 91.5422 198.972 91.5422 198.87 91.5422H198.986L199.216 91.6169C199.368 91.6518 199.526 91.6338 199.666 91.5658C199.806 91.4978 199.918 91.3839 199.984 91.2432C200.04 91.0976 200.044 90.937 199.996 90.7885C199.948 90.64 199.85 90.5126 199.719 90.4279L199.767 90.3939Z" fill="#004B3B"/>
<path d="M203.101 109.937C203.798 108.647 204.918 107.636 206.273 107.076C205.098 106.954 199.543 106.444 198.123 107.239C196.555 108.129 198.415 111.717 201.661 111.894C201.979 111.911 202.298 111.893 202.612 111.839C202.64 111.178 202.806 110.53 203.101 109.937Z" fill="#FFC633"/>
<path d="M177.424 102.392C177.424 102.392 177.988 104.566 181.22 107.1C183.675 108.875 186.336 110.344 189.145 111.476L189.519 109.839C189.519 109.839 184.67 107.732 182.422 105.408C180.174 103.085 179.896 101.828 179.896 101.828L177.424 102.392Z" fill="#DEE1EB"/>
<path d="M190.069 108.633C191.048 108.576 192.015 108.874 192.793 109.473C193.57 110.073 194.105 110.932 194.299 111.894C194.483 113.253 193.233 114.721 190.313 113.41C186.68 111.779 187.468 108.748 190.069 108.633Z" fill="#002019"/>
<path d="M179.462 86.2962C179.462 86.2962 180.583 78.2172 185.995 72.7067C196.324 62.236 205.105 62.8679 205.105 62.8679C205.105 62.8679 205.03 61.3935 201.709 60.2655C198.613 59.2123 197.214 59.7763 197.214 59.7763C197.214 59.7763 188.711 60.4558 181.547 68.4192C174.382 76.3827 173.629 86.5136 173.629 86.5136L179.462 86.2962Z" fill="#DEE1EB"/>
<path d="M175.319 98.6037C174.465 98.6168 173.625 98.3925 172.891 97.9558C172.157 97.5192 171.559 96.8872 171.163 96.1304C170.709 95.3108 170.487 94.3826 170.522 93.4462C170.557 92.5097 170.847 91.6006 171.36 90.8169C171.379 90.7892 171.403 90.7655 171.431 90.7471C171.458 90.7288 171.49 90.716 171.522 90.7097C171.555 90.7034 171.589 90.7036 171.622 90.7104C171.654 90.7171 171.685 90.7302 171.713 90.7489C171.741 90.7677 171.764 90.7917 171.783 90.8196C171.801 90.8475 171.814 90.8787 171.82 90.9115C171.827 90.9443 171.826 90.9781 171.82 91.0108C171.813 91.0435 171.8 91.0746 171.781 91.1023C171.325 91.8053 171.068 92.6192 171.038 93.4569C171.008 94.2946 171.206 95.1247 171.611 95.8586C171.97 96.5575 172.523 97.1377 173.204 97.5295C173.885 97.9213 174.664 98.1079 175.448 98.0669C176.179 98.0643 176.898 97.8812 177.541 97.5339C178.185 97.1866 178.732 96.6858 179.136 96.076C179.609 95.3439 179.906 94.5115 180.003 93.6447C180.1 92.7779 179.993 91.9005 179.692 91.0819C179.413 90.3135 178.894 89.6558 178.211 89.2066C177.528 88.7573 176.719 88.5404 175.903 88.5882C175.87 88.593 175.836 88.5911 175.804 88.5827C175.772 88.5744 175.741 88.5596 175.715 88.5394C175.688 88.5191 175.666 88.4938 175.649 88.4648C175.633 88.4359 175.622 88.4039 175.618 88.3708C175.61 88.3043 175.628 88.2374 175.669 88.1842C175.709 88.1309 175.769 88.0955 175.835 88.0854C176.768 88.0134 177.698 88.2505 178.482 88.7601C179.266 89.2698 179.861 90.0236 180.175 90.9052C180.497 91.7973 180.61 92.7518 180.504 93.6946C180.398 94.6374 180.076 95.543 179.563 96.341C179.115 97.0134 178.51 97.5664 177.8 97.9523C177.09 98.3382 176.297 98.5454 175.489 98.5561L175.319 98.6037Z" fill="#B58300"/>
<path d="M170.396 120.664C170.396 120.664 149.887 125.726 142.723 133.88C135.558 142.034 132.183 182.238 132.041 189.692C131.898 197.146 137.1 200.237 140.19 202.344C143.28 204.45 156.909 208.248 167.87 208.812C178.83 209.376 189.227 208.812 189.227 208.812C189.354 206.75 189.917 204.737 190.877 202.908C192.439 199.646 194.422 198.967 194.422 198.967L185.01 195.569C185.01 195.569 183.36 166.012 180.793 151.743C177.846 135.286 170.396 120.664 170.396 120.664Z" fill="#002019"/>
<path d="M204.398 190.874C204.353 190.883 204.307 190.883 204.262 190.874C204.181 190.837 204.117 190.769 204.085 190.685C204.053 190.601 204.056 190.508 204.093 190.426C206.014 186.084 208.004 177.57 209.125 171.591L209.22 171.108C209.559 169.349 209.98 167.161 209.138 165.673C208.704 164.905 207.732 163.233 206.802 161.63C205.872 160.026 204.921 158.389 204.663 157.92C204.167 157.003 205.729 154.522 207.984 151.186C208.588 150.276 209.118 149.494 209.423 148.964C210.232 147.605 209.695 146.294 209.077 144.82L208.839 144.269C208.283 142.91 207.644 141.511 207.026 140.192L206.272 138.548C205.94 137.821 205.593 137.087 205.274 136.333C203.331 131.723 201.12 127.231 198.653 122.879C198.608 122.801 198.596 122.708 198.619 122.62C198.641 122.532 198.698 122.457 198.775 122.41C198.813 122.387 198.856 122.372 198.9 122.366C198.944 122.36 198.989 122.362 199.032 122.374C199.075 122.385 199.115 122.405 199.151 122.433C199.186 122.46 199.215 122.494 199.237 122.533C201.732 126.899 203.97 131.407 205.94 136.034L206.938 138.242L207.692 139.88C208.31 141.239 208.948 142.598 209.519 144.004L209.729 144.507C210.361 146.015 211.013 147.571 210.041 149.263C209.722 149.814 209.193 150.622 208.575 151.526C207.4 153.279 204.948 156.928 205.288 157.553C205.539 158.015 206.449 159.591 207.413 161.249C208.378 162.907 209.328 164.531 209.756 165.326C210.721 167.052 210.272 169.369 209.912 171.238L209.817 171.713C209.41 173.894 207.244 185.038 204.738 190.698C204.705 190.758 204.656 190.807 204.595 190.838C204.535 190.87 204.466 190.882 204.398 190.874Z" fill="#E7EAEC"/>
<path d="M184.391 192.073C184.347 192.073 184.303 192.064 184.262 192.047C184.221 192.029 184.184 192.003 184.154 191.971C182.551 190.36 174.857 177.022 174.28 174.515C173.967 173.156 174.755 169.657 175.516 166.287C176.106 163.677 176.718 160.98 176.548 160.253C176.283 159.159 174.314 157.535 172.412 155.993C170.11 154.11 167.733 152.167 167.271 150.414C166.749 148.423 167.197 135.969 167.496 127.726C167.597 124.757 167.686 122.42 167.686 121.611C167.686 121.521 167.721 121.435 167.785 121.371C167.849 121.307 167.935 121.271 168.025 121.271C168.115 121.271 168.202 121.307 168.265 121.371C168.329 121.435 168.365 121.521 168.365 121.611C168.365 122.454 168.277 124.805 168.175 127.774C167.896 135.479 167.434 148.376 167.93 150.271C168.338 151.807 170.728 153.764 172.84 155.497C174.952 157.229 176.915 158.806 177.207 160.117C177.417 161 176.84 163.514 176.181 166.463C175.502 169.609 174.667 173.163 174.945 174.393C175.509 176.846 183.094 189.939 184.636 191.522C184.667 191.553 184.693 191.59 184.71 191.631C184.727 191.672 184.736 191.716 184.736 191.76C184.736 191.804 184.727 191.848 184.71 191.889C184.693 191.93 184.667 191.967 184.636 191.998C184.602 192.027 184.564 192.048 184.521 192.061C184.479 192.074 184.435 192.078 184.391 192.073Z" fill="#E7EAEC"/>
<path d="M156.773 186.234H156.725C156.68 186.228 156.637 186.214 156.598 186.191C156.559 186.168 156.525 186.138 156.498 186.102C156.471 186.066 156.451 186.025 156.44 185.981C156.429 185.937 156.427 185.892 156.433 185.847C156.684 184.08 160.582 148.883 160.759 146.186C160.765 146.096 160.807 146.012 160.875 145.953C160.943 145.893 161.032 145.864 161.122 145.87C161.212 145.876 161.296 145.918 161.355 145.986C161.415 146.054 161.444 146.143 161.438 146.233C161.255 148.951 157.364 184.175 157.106 185.942C157.094 186.022 157.054 186.096 156.993 186.15C156.932 186.203 156.854 186.233 156.773 186.234Z" fill="#E7EAEC"/>
<path d="M184.732 195.793C184.689 195.803 184.645 195.803 184.603 195.793C183.74 195.447 179.924 194.156 175.096 192.525C165.344 189.236 152.006 184.731 149.446 183.413C149.367 183.37 149.308 183.298 149.281 183.211C149.254 183.125 149.263 183.032 149.304 182.951C149.345 182.872 149.417 182.813 149.502 182.787C149.587 182.76 149.679 182.768 149.759 182.809C152.251 184.106 166.132 188.788 175.306 191.886C180.148 193.517 183.978 194.808 184.861 195.168C184.944 195.203 185.009 195.269 185.043 195.351C185.078 195.434 185.078 195.527 185.044 195.61C185.014 195.666 184.969 195.713 184.914 195.746C184.859 195.778 184.796 195.795 184.732 195.793Z" fill="#E7EAEC"/>
<path d="M180.039 209.812C171.462 209.812 154.824 208.263 142.186 203.792C142.142 203.778 142.1 203.754 142.065 203.723C142.029 203.693 142 203.655 141.979 203.613C141.958 203.571 141.945 203.526 141.942 203.479C141.938 203.432 141.944 203.385 141.959 203.34C141.973 203.296 141.997 203.254 142.027 203.219C142.058 203.183 142.095 203.154 142.137 203.133C142.179 203.112 142.225 203.099 142.272 203.096C142.319 203.092 142.366 203.098 142.41 203.113C158.376 208.766 180.711 209.731 184.867 208.8C184.912 208.79 184.958 208.789 185.003 208.797C185.048 208.805 185.091 208.822 185.129 208.847C185.168 208.871 185.201 208.903 185.227 208.941C185.253 208.978 185.272 209.02 185.281 209.065C185.291 209.11 185.292 209.156 185.284 209.201C185.276 209.246 185.259 209.289 185.235 209.327C185.21 209.366 185.178 209.399 185.141 209.425C185.103 209.451 185.061 209.47 185.017 209.479C183.371 209.744 181.705 209.856 180.039 209.812Z" fill="#E7EAEC"/>
<path d="M81.8487 125.405C84.5107 127.749 87.8858 129.251 90.2219 131.962C91.1455 133.029 91.9672 134.164 92.8228 135.285C93.4476 136.1 95.1046 137.446 95.3762 138.472C95.4917 138.92 95.4645 138.308 95.3762 137.86V137.806C95.1453 135.733 94.9755 133.654 94.9008 131.568C94.8261 129.482 94.962 127.403 94.8329 125.324C94.6428 122.402 93.7328 119.562 91.3424 117.727C90.1744 116.837 88.6668 116.287 87.5938 115.295C86.5208 114.303 86.9826 113.256 87.5938 112.217C88.2422 111.271 88.7352 110.227 89.0539 109.125C89.213 107.819 88.8972 106.5 88.1642 105.408C86.7721 103.071 83.6822 100.462 80.7621 100.815C78.3242 101.107 78.0457 103.92 78.0865 105.877C78.1272 107.834 78.3038 109.682 78.3242 111.592C78.3445 113.501 78.0118 115.465 77.9846 117.415C77.8556 120.73 79.3836 123.258 81.8487 125.405Z" fill="#004B3B"/>
<path d="M106.574 155.824C107.299 154.069 108.181 152.384 109.209 150.789C110.649 148.581 112.238 146.427 113.202 143.96C114.167 141.494 114.044 138.728 114.139 136.071C114.214 134.121 114.819 132.171 114.635 130.208C114.56 129.27 114.017 127.755 112.808 127.904C111.858 128.027 111.301 129.202 110.934 129.943C110.338 131.269 109.823 132.63 109.393 134.019C109.209 134.556 109.033 135.1 108.802 135.616C108.666 135.915 108.231 136.649 107.831 136.554C107.152 136.377 107.763 133.557 107.831 133.061C108.347 130.554 109.128 128.224 109.23 125.642C109.386 121.898 109.101 117.44 105.44 115.395C104.483 114.858 103.274 114.539 102.364 115.341C101.454 116.143 101.21 117.501 101.08 118.623C100.673 122.081 101.481 125.356 102.595 128.604C103.505 131.322 104.591 134.04 104.673 136.934C104.748 139.7 103.315 142.146 102.636 144.762C101.948 147.272 101.659 149.874 101.78 152.474C101.78 154.159 101.834 155.831 101.957 157.516C102.072 159.065 102.208 160.607 102.398 162.15C102.398 162.462 102.466 162.788 102.513 163.115C101.916 161.681 101.705 160.043 101.216 158.603C100.34 156.048 99.3284 153.541 98.4999 150.972C97.8589 148.832 97.104 146.727 96.2385 144.667C95.3761 142.758 94.3439 140.733 92.7412 139.326C91.8041 138.462 90.5793 137.978 89.305 137.967C88.4989 138.032 87.7046 138.201 86.9418 138.47C86.5142 138.618 86.056 138.654 85.6104 138.576C85.1648 138.497 84.7466 138.307 84.3952 138.022C81.7739 135.983 80.9997 132.389 79.0371 129.868C77.611 127.965 74.1748 124.724 71.6622 126.797C70.304 127.897 69.9508 130.031 70.0255 131.662C70.208 133.684 70.9098 135.624 72.0628 137.295C73.1969 139.116 74.657 140.746 75.7028 142.615C76.2559 143.656 76.4697 144.844 76.3139 146.012C76.1354 147.162 76.2049 148.337 76.5177 149.457C77.7197 152.855 81.4751 152.386 84.3952 152.474C86.4913 152.518 88.5702 152.864 90.5681 153.5C91.6187 153.823 92.5762 154.394 93.3598 155.165C94.1434 155.936 94.7301 156.885 95.0705 157.93C95.6477 159.534 95.9601 161.328 97.0535 162.72C97.5734 163.351 98.2372 163.847 98.9889 164.168C100.13 164.671 103.6 164.888 103.627 164.575C103.812 163.481 104.115 162.411 104.53 161.382C105.114 159.507 105.807 157.665 106.574 155.824Z" fill="#004B3B"/>
<path d="M122.69 155.195C122.391 153.245 122.445 151.118 121.522 149.318C121.505 149.288 121.482 149.262 121.455 149.242C121.428 149.221 121.398 149.206 121.365 149.197C121.332 149.188 121.298 149.186 121.264 149.19C121.23 149.195 121.198 149.206 121.169 149.223C120.489 149.59 120.489 150.656 120.422 151.309C120.333 152.396 120.422 153.483 120.265 154.563C120.038 156.493 119.582 158.388 118.907 160.21C118.563 161.14 117.998 161.972 117.261 162.635C116.524 163.298 115.637 163.771 114.676 164.015C113.353 164.32 112.1 164.873 110.982 165.646C110.029 166.456 109.283 167.484 108.809 168.642C107.451 171.707 106.772 175.124 106.167 178.399C105.74 180.601 105.393 182.816 104.857 184.997C104.271 187.161 103.799 189.354 103.444 191.568C103.39 191.683 103.336 191.792 103.288 191.907C103.145 192.24 103.668 192.417 103.845 192.145C105.957 188.89 108.531 185.975 112.035 184.188C113.617 183.38 115.722 183.21 117.046 181.939C118.052 180.975 118.187 179.5 118.038 178.182C117.841 176.456 117.012 175.036 116.15 173.568C115.675 172.76 115.118 171.89 115.308 170.912C115.436 170.465 115.655 170.049 115.951 169.69C116.246 169.331 116.612 169.037 117.026 168.826C118.479 167.922 120.184 167.514 121.379 166.21C122.472 165.01 123.123 163.474 123.226 161.854C123.295 159.621 123.115 157.388 122.69 155.195Z" fill="#004B3B"/>
<path d="M93.9165 166.411C92.0499 164.027 89.8092 161.962 87.2818 160.296C85.9236 159.399 82.7522 157.632 82.1071 160.296C81.7336 161.845 83.2479 163.367 84.2462 164.339C85.747 165.8 87.4787 167.057 88.7418 168.742C87.1799 169.245 85.5433 169.34 84.1783 170.427C82.5689 171.711 81.8422 174.184 83.4449 175.761C84.2743 176.473 85.2119 177.049 86.2224 177.466C87.4855 178.071 88.769 178.628 90.0593 179.165C92.8503 180.334 95.6754 181.516 98.0522 183.425C100.429 185.335 102.758 188.664 102.948 191.837C102.948 192.143 102.853 191.837 103.03 191.729C103.132 191.817 103.465 191.654 103.465 191.477C103.47 186.825 102.508 182.223 100.64 177.962C98.8662 173.858 96.6092 169.98 93.9165 166.411Z" fill="#004B3B"/>
<path d="M87.4844 122.526C88.5166 124.66 89.5896 126.739 90.7304 128.818C91.8688 130.788 92.876 132.831 93.7456 134.933C94.7575 137.563 95.7829 140.152 96.883 142.761C98.0079 145.466 98.9761 148.234 99.7828 151.051C101.366 156.563 102.463 162.204 103.063 167.908C103.365 170.804 103.48 173.716 103.409 176.626C103.348 178.895 103.09 181.145 102.879 183.421C102.606 185.775 102.542 188.149 102.689 190.514C102.859 192.485 103.171 194.829 104.727 196.236C104.788 196.29 104.866 196.321 104.948 196.323C105.029 196.326 105.109 196.301 105.174 196.251C105.239 196.201 105.285 196.131 105.304 196.051C105.322 195.971 105.313 195.888 105.277 195.814C103.457 192.084 103.559 188.014 103.918 183.964C104.115 181.736 104.38 179.514 104.455 177.272C104.543 174.417 104.448 171.559 104.17 168.717C103.602 163.133 102.571 157.605 101.087 152.192C100.34 149.424 99.4331 146.701 98.3702 144.038C97.3176 141.361 96.0953 138.752 95.0698 136.061C93.2159 131.19 90.3841 126.875 87.885 122.336C87.756 122.098 87.4165 122.336 87.5251 122.547L87.4844 122.526Z" fill="#002019"/>
<path d="M103.152 162.374C103.444 158.827 103.756 155.416 104.952 152.032C105.508 150.456 106.188 148.92 106.724 147.337C107.165 146.026 107.831 144.232 107.491 142.839C107.484 142.804 107.465 142.773 107.437 142.75C107.409 142.728 107.374 142.715 107.339 142.715C107.303 142.715 107.268 142.728 107.24 142.75C107.212 142.773 107.193 142.804 107.186 142.839C106.955 143.634 106.982 144.504 106.812 145.319C106.651 146.112 106.445 146.894 106.194 147.663C105.671 149.301 104.986 150.871 104.388 152.488C103.201 155.642 102.695 159.011 102.901 162.374C102.901 162.407 102.914 162.438 102.937 162.461C102.959 162.483 102.991 162.496 103.023 162.496C103.055 162.496 103.086 162.483 103.109 162.461C103.132 162.438 103.145 162.407 103.145 162.374H103.152Z" fill="#002019"/>
<path d="M82.6089 141.994C84.0146 145.391 88.2454 145.588 91.3284 146.349C92.3802 146.636 93.3638 147.13 94.2212 147.804C95.0785 148.477 95.7921 149.316 96.3198 150.27C97.5511 152.43 98.5071 154.735 99.1652 157.133C99.1652 157.133 99.2127 157.133 99.2059 157.133C98.3435 153.056 97.1143 148.15 92.9107 146.261C89.5153 144.739 85.1147 145.5 82.962 141.865C82.8534 141.688 82.5274 141.804 82.6089 142.014V141.994Z" fill="#002019"/>
<path d="M100.924 161.835C101.094 162.06 101.244 162.297 101.42 162.515C101.5 162.626 101.594 162.726 101.699 162.814C101.805 162.921 101.943 162.991 102.093 163.011C102.108 163.012 102.122 163.008 102.135 163.001C102.148 162.995 102.159 162.984 102.167 162.972C102.174 162.959 102.179 162.945 102.179 162.93C102.179 162.916 102.175 162.901 102.168 162.888C102.081 162.784 101.981 162.693 101.869 162.617L101.57 162.352C101.373 162.161 101.196 161.958 100.999 161.767C100.999 161.733 100.89 161.767 100.924 161.829V161.835Z" fill="#B58300"/>
<path d="M92.1297 172.625C94.5878 174.626 96.7567 176.958 98.5743 179.555C99.4239 180.801 100.206 182.092 100.917 183.421C101.636 184.876 102.271 186.371 102.819 187.899C102.859 188.015 103.07 188.015 103.056 187.899C102.717 184.699 100.693 181.961 99.0701 179.297C98.2081 177.969 97.1964 176.745 96.0549 175.648C94.9235 174.443 93.6822 173.347 92.3471 172.373C92.1841 172.258 91.9668 172.523 92.1297 172.659V172.625Z" fill="#002019"/>
<path d="M111.451 168.856C110.283 169.536 110.249 171.37 110.222 172.546C110.181 174.815 110.738 176.942 109.746 179.103C108.85 181.053 107.417 182.683 106.283 184.491C105.23 186.19 104.191 188.357 104.246 190.396C104.246 190.518 104.429 190.579 104.483 190.463C104.838 189.5 105.133 188.515 105.366 187.515C105.704 186.438 106.188 185.414 106.806 184.47C107.892 182.785 109.223 181.257 110.106 179.442C110.989 177.628 110.894 175.651 110.833 173.585C110.792 172.267 110.663 170.147 111.723 169.169C111.892 169.012 111.682 168.754 111.485 168.856H111.451Z" fill="#002019"/>
<path d="M331.205 160.313L304.347 213.543L226.034 214.107L250.203 159.559L331.205 160.313Z" fill="#F6F7FA"/>
<path d="M174.07 213.773V209.513H224.757L248.084 158.342H329.168L331.205 160.312H252.009L227.773 213.733C227.773 213.733 174.07 213.631 174.07 213.773Z" fill="#D9DEE8"/>
<path d="M290.542 189.689C289.659 192.346 284.858 194.391 279.819 194.269C274.78 194.146 271.412 191.891 272.294 189.234C273.177 186.577 277.985 184.525 283.024 184.654C288.063 184.783 291.424 187.032 290.542 189.689Z" fill="#D9DEE8"/>
<path d="M170.538 217.81H77.3867V238.473H170.538V217.81Z" fill="#B58300"/>
<path d="M337.608 217.81H170.008V238.473H337.608V217.81Z" fill="#B58300"/>
<path d="M170.538 217.81H170.008H77.3867V221.602H170.008H170.538H337.608V217.81H170.538Z" fill="#BDC4D7"/>
<path d="M174.613 213.729H72.8916V218.792H174.613V213.729Z" fill="#6B4D00"/>
<path d="M341.683 213.729H174.083V218.792H341.683V213.729Z" fill="#6B4D00"/>
<path d="M122.777 95.679C124.034 95.679 125.052 94.6598 125.052 93.4027C125.052 92.1456 124.034 91.1265 122.777 91.1265C121.521 91.1265 120.502 92.1456 120.502 93.4027C120.502 94.6598 121.521 95.679 122.777 95.679Z" fill="#002019"/>
<path d="M130.58 95.679C131.837 95.679 132.855 94.6598 132.855 93.4027C132.855 92.1456 131.837 91.1265 130.58 91.1265C129.324 91.1265 128.305 92.1456 128.305 93.4027C128.305 94.6598 129.324 95.679 130.58 95.679Z" fill="#002019"/>
<path d="M138.376 95.679C139.632 95.679 140.651 94.6598 140.651 93.4027C140.651 92.1456 139.632 91.1265 138.376 91.1265C137.12 91.1265 136.101 92.1456 136.101 93.4027C136.101 94.6598 137.12 95.679 138.376 95.679Z" fill="#002019"/>
<path d="M314.438 30.9746H238.515C236.174 30.9746 233.928 31.9052 232.273 33.5618C230.617 35.2183 229.687 37.4651 229.687 39.8078V75.8199C229.687 78.1626 230.617 80.4094 232.273 82.0659C233.928 83.7225 236.174 84.6531 238.515 84.6531H245.306C245.496 87.9146 245.028 92.8068 242.298 98.99C249.064 95.9185 254.786 90.9352 258.759 84.6531H314.445C316.786 84.6531 319.031 83.7225 320.687 82.0659C322.343 80.4094 323.273 78.1626 323.273 75.8199V39.8078C323.273 38.6472 323.044 37.498 322.6 36.4259C322.156 35.3538 321.505 34.3797 320.685 33.5594C319.864 32.7391 318.89 32.0886 317.818 31.645C316.746 31.2015 315.598 30.9737 314.438 30.9746Z" fill="#004B3B"/>
<path d="M309.053 59.0696H243.669C243.365 59.0696 243.073 58.9486 242.858 58.7332C242.643 58.5179 242.522 58.2258 242.522 57.9213C242.522 57.6167 242.643 57.3246 242.858 57.1093C243.073 56.8939 243.365 56.7729 243.669 56.7729H309.053C309.357 56.7729 309.649 56.8939 309.864 57.1093C310.079 57.3246 310.2 57.6167 310.2 57.9213C310.2 58.0721 310.17 58.2214 310.113 58.3607C310.055 58.5 309.971 58.6266 309.864 58.7332C309.757 58.8399 309.631 58.9245 309.492 58.9822C309.352 59.0399 309.203 59.0696 309.053 59.0696Z" fill="white"/>
<path d="M309.053 65.4514H243.669C243.365 65.4514 243.073 65.3304 242.858 65.1151C242.643 64.8997 242.522 64.6076 242.522 64.3031C242.522 63.9985 242.643 63.7065 242.858 63.4911C243.073 63.2758 243.365 63.1548 243.669 63.1548H309.053C309.357 63.1548 309.649 63.2758 309.864 63.4911C310.079 63.7065 310.2 63.9985 310.2 64.3031C310.2 64.4539 310.17 64.6032 310.113 64.7425C310.055 64.8819 309.971 65.0084 309.864 65.1151C309.757 65.2217 309.631 65.3063 309.492 65.364C309.352 65.4217 309.203 65.4514 309.053 65.4514Z" fill="white"/>
<path d="M294.792 72.2454H243.669C243.365 72.2454 243.073 72.1244 242.858 71.909C242.643 71.6937 242.522 71.4016 242.522 71.097C242.522 70.7925 242.643 70.5004 242.858 70.2851C243.073 70.0697 243.365 69.9487 243.669 69.9487H294.792C295.096 69.9487 295.388 70.0697 295.603 70.2851C295.818 70.5004 295.939 70.7925 295.939 71.097C295.939 71.4016 295.818 71.6937 295.603 71.909C295.388 72.1244 295.096 72.2454 294.792 72.2454Z" fill="white"/>
<path d="M253.204 125.184C253.088 125.182 252.976 125.141 252.885 125.069L241.782 115.896C241.73 115.851 241.688 115.797 241.657 115.736C241.626 115.675 241.608 115.608 241.603 115.54C241.598 115.472 241.606 115.404 241.628 115.339C241.649 115.274 241.683 115.214 241.727 115.162C241.772 115.11 241.826 115.068 241.887 115.037C241.948 115.006 242.015 114.988 242.083 114.983C242.151 114.978 242.219 114.986 242.284 115.008C242.349 115.029 242.409 115.063 242.461 115.108L253.225 124.009L263.716 114.87C263.767 114.825 263.826 114.791 263.889 114.769C263.953 114.747 264.02 114.738 264.087 114.742C264.154 114.746 264.22 114.764 264.281 114.793C264.341 114.823 264.395 114.864 264.44 114.914C264.484 114.965 264.519 115.023 264.54 115.087C264.562 115.151 264.572 115.218 264.567 115.285C264.563 115.352 264.546 115.418 264.517 115.479C264.487 115.539 264.446 115.593 264.396 115.638L253.578 125.055C253.528 125.101 253.469 125.136 253.404 125.159C253.34 125.181 253.272 125.19 253.204 125.184Z" fill="#6B4D00"/>
<path d="M242.114 130.64C242.014 130.642 241.916 130.614 241.832 130.559C241.748 130.505 241.683 130.427 241.643 130.335C241.604 130.243 241.593 130.142 241.611 130.043C241.63 129.945 241.677 129.855 241.748 129.784L249.51 121.63C249.605 121.535 249.735 121.481 249.87 121.481C250.005 121.481 250.134 121.535 250.229 121.63C250.325 121.726 250.378 121.855 250.378 121.99C250.378 122.125 250.325 122.255 250.229 122.35L242.467 130.504C242.421 130.55 242.366 130.585 242.305 130.609C242.244 130.632 242.179 130.643 242.114 130.64Z" fill="#6B4D00"/>
<path d="M264.029 130.339C263.961 130.34 263.893 130.327 263.83 130.301C263.767 130.276 263.71 130.238 263.662 130.189L255.934 122.437C255.839 122.341 255.785 122.212 255.785 122.076C255.785 121.941 255.839 121.812 255.934 121.716C255.981 121.668 256.037 121.63 256.099 121.604C256.161 121.578 256.227 121.564 256.294 121.564C256.361 121.564 256.428 121.578 256.489 121.604C256.551 121.63 256.607 121.668 256.654 121.716L264.389 129.469C264.485 129.566 264.538 129.697 264.538 129.833C264.538 129.969 264.485 130.099 264.389 130.196C264.341 130.243 264.285 130.28 264.223 130.304C264.162 130.329 264.095 130.34 264.029 130.339Z" fill="#6B4D00"/>
<path d="M265.679 120.666C269.441 120.666 272.49 117.615 272.49 113.851C272.49 110.087 269.441 107.036 265.679 107.036C261.917 107.036 258.867 110.087 258.867 113.851C258.867 117.615 261.917 120.666 265.679 120.666Z" fill="#FF5F42"/>
<path d="M334.126 99.6704H294.317C292.817 99.6704 291.601 100.887 291.601 102.388V108.619C291.601 110.12 292.817 111.337 294.317 111.337H334.126C335.626 111.337 336.842 110.12 336.842 108.619V102.388C336.842 100.887 335.626 99.6704 334.126 99.6704Z" fill="#FFB800"/>
<path d="M330.124 108.564C330.042 108.567 329.96 108.552 329.885 108.519C329.81 108.486 329.743 108.436 329.69 108.373C329.635 108.308 329.594 108.232 329.57 108.15C329.545 108.068 329.538 107.983 329.547 107.898L329.724 106.383C329.724 106.349 329.724 106.321 329.724 106.308C329.71 106.299 329.693 106.294 329.676 106.294C329.659 106.294 329.643 106.299 329.629 106.308L328.359 107.225C328.253 107.295 328.129 107.332 328.002 107.33C327.875 107.328 327.752 107.287 327.649 107.214C327.546 107.14 327.468 107.037 327.425 106.917C327.382 106.798 327.376 106.668 327.408 106.546C327.484 106.396 327.612 106.28 327.768 106.219L329.16 105.588C329.201 105.588 329.214 105.588 329.214 105.533C329.214 105.479 329.214 105.486 329.16 105.472L327.768 104.847C327.686 104.816 327.613 104.767 327.553 104.703C327.493 104.64 327.448 104.563 327.422 104.48C327.395 104.398 327.387 104.312 327.396 104.226C327.405 104.141 327.433 104.058 327.476 103.984C327.518 103.909 327.576 103.844 327.645 103.792C327.714 103.741 327.793 103.704 327.877 103.685C328.045 103.659 328.217 103.698 328.359 103.794L329.602 104.711C329.616 104.72 329.632 104.725 329.649 104.725C329.666 104.725 329.682 104.72 329.697 104.711C329.697 104.711 329.697 104.67 329.697 104.63L329.52 103.121C329.511 103.035 329.52 102.948 329.547 102.866C329.574 102.784 329.618 102.709 329.676 102.645C329.733 102.582 329.804 102.532 329.882 102.499C329.961 102.466 330.046 102.451 330.131 102.455C330.217 102.453 330.302 102.469 330.38 102.504C330.458 102.539 330.528 102.591 330.583 102.656C330.639 102.721 330.679 102.798 330.7 102.881C330.722 102.964 330.725 103.051 330.708 103.135L330.532 104.643C330.532 104.684 330.532 104.711 330.532 104.725C330.546 104.734 330.563 104.739 330.579 104.739C330.596 104.739 330.613 104.734 330.627 104.725L331.87 103.828C331.938 103.774 332.017 103.734 332.101 103.712C332.185 103.69 332.273 103.685 332.359 103.699C332.443 103.715 332.522 103.751 332.59 103.803C332.658 103.854 332.714 103.921 332.753 103.998C332.806 104.075 332.841 104.164 332.852 104.258C332.864 104.351 332.853 104.446 332.82 104.534C332.745 104.684 332.617 104.8 332.461 104.861L331.068 105.486C331.028 105.486 331.014 105.486 331.014 105.547C331.014 105.608 331.014 105.588 331.068 105.601L332.461 106.233C332.544 106.264 332.62 106.312 332.682 106.376C332.744 106.439 332.792 106.516 332.82 106.6C332.848 106.682 332.856 106.77 332.844 106.856C332.832 106.942 332.801 107.024 332.753 107.096C332.715 107.173 332.659 107.239 332.591 107.29C332.522 107.341 332.443 107.374 332.359 107.388C332.275 107.405 332.188 107.405 332.104 107.387C332.02 107.37 331.94 107.335 331.87 107.286L330.627 106.369C330.613 106.36 330.596 106.355 330.579 106.355C330.563 106.355 330.546 106.36 330.532 106.369C330.532 106.369 330.532 106.41 330.532 106.444L330.708 107.959C330.724 108.044 330.719 108.131 330.695 108.214C330.67 108.297 330.626 108.372 330.566 108.435C330.441 108.533 330.283 108.58 330.124 108.564Z" fill="#004B3B"/>
</g>
<defs>
<clipPath id="clip0_127_3446">
<rect width="393" height="238.473" fill="white"/>
</clipPath>
</defs>
</svg>
