<svg width="238" height="111" viewBox="0 0 238 111" fill="none" xmlns="http://www.w3.org/2000/svg">
<g clip-path="url(#clip0_351_1696)">
<path d="M6.53103 92.5766C6.54769 95.71 7.79654 98.7098 10.0053 100.922C12.2141 103.134 15.2036 104.379 18.3221 104.385H30.074L30.0522 97.3525H18.3003L18.2808 90.7922H36.5615L36.6246 110.948H18.3439C15.9432 110.955 13.5646 110.488 11.3437 109.571C9.12293 108.655 7.10343 107.309 5.40055 105.608C3.69767 103.908 2.34476 101.887 1.41907 99.6617C0.49338 97.436 0.0130356 95.0489 0.00546207 92.6367C-0.00211144 90.2245 0.463235 87.8344 1.37493 85.6029C2.28663 83.3713 3.62682 81.3421 5.31899 79.631C7.01116 77.9199 9.02216 76.5605 11.2372 75.6304C13.4522 74.7002 15.8279 74.2176 18.2285 74.21H36.5093L36.5289 80.7702H18.2394C16.6991 80.7728 15.1744 81.0803 13.7523 81.675C12.3302 82.2698 11.0387 83.1402 9.95145 84.2365C8.8642 85.3329 8.00253 86.6337 7.41565 88.0647C6.82877 89.4957 6.52817 91.0288 6.53103 92.5766Z" fill="#F8F9FA"/>
<path d="M77.0555 92.5766C77.0555 96.207 75.9849 99.756 73.9788 102.775C71.9728 105.795 69.1213 108.149 65.7845 109.541C62.4477 110.933 58.7752 111.301 55.2307 110.597C51.6863 109.893 48.4289 108.15 45.8699 105.587C43.3108 103.024 41.565 99.7567 40.8527 96.1976C40.1405 92.6384 40.4938 88.947 41.8681 85.5895C43.2424 82.232 45.576 79.359 48.5743 77.3332C51.5725 75.3075 55.1009 74.2199 58.7138 74.2078C61.1213 74.1937 63.5077 74.6587 65.7354 75.576C67.9631 76.4934 69.988 77.8449 71.6932 79.5526C73.3984 81.2603 74.7501 83.2904 75.6705 85.5258C76.5909 87.7612 77.0616 90.1575 77.0555 92.5766ZM70.5267 92.5766C70.5267 90.2396 69.8365 87.9552 68.5437 86.0125C67.2508 84.0699 65.4134 82.5564 63.2639 81.6637C61.1145 80.7709 58.7498 80.5392 56.4692 80.9976C54.1887 81.4561 52.0947 82.5842 50.4526 84.2392C48.8105 85.8941 47.694 88.0015 47.2444 90.2944C46.7949 92.5874 47.0326 94.9627 47.9274 97.1198C48.8223 99.2769 50.334 101.119 52.2711 102.412C54.2083 103.705 56.4838 104.392 58.8096 104.385C61.915 104.359 64.8853 103.105 67.0781 100.895C69.2708 98.6854 70.5096 95.6971 70.5267 92.5766Z" fill="#F8F9FA"/>
<path d="M125.415 74.2058L125.436 80.7661H98.74C97.8562 80.7718 97.0104 81.1279 96.3864 81.7569C95.7625 82.3858 95.4109 83.2369 95.4081 84.1249V87.5384H118.912L118.934 94.0987H95.3863L95.4385 110.937H88.9685L88.8836 84.114C88.8761 82.8159 89.1238 81.5291 89.6123 80.3274C90.1009 79.1257 90.8207 78.0328 91.7306 77.1112C92.6404 76.1897 93.7224 75.4577 94.9144 74.9572C96.1064 74.4568 97.385 74.1977 98.6768 74.1948L125.415 74.2058Z" fill="#F8F9FA"/>
<path d="M167.156 74.2056L167.212 92.5744C167.212 97.4461 165.286 102.118 161.858 105.563C158.43 109.008 153.78 110.943 148.931 110.943C144.083 110.943 139.433 109.008 136.005 105.563C132.577 102.118 130.651 97.4461 130.651 92.5744L130.594 74.2056H137.123L137.18 92.5744C137.18 95.7062 138.418 98.7097 140.622 100.924C142.825 103.139 145.815 104.383 148.931 104.383C152.048 104.383 155.037 103.139 157.241 100.924C159.445 98.7097 160.683 95.7062 160.683 92.5744L160.625 74.2056H167.156Z" fill="#F8F9FA"/>
<path d="M202.616 104.433L202.635 110.993H184.089C182.311 110.999 180.557 110.585 178.966 109.786C176.661 108.639 174.799 106.756 173.671 104.433C172.872 102.838 172.456 101.076 172.455 99.2899L172.376 74.2559H178.905L178.986 99.9219C179.145 101.051 179.666 102.097 180.47 102.902C181.274 103.707 182.317 104.226 183.441 104.383L202.616 104.433Z" fill="#F8F9FA"/>
<path d="M237.98 104.433L238.002 110.993H219.456C217.677 110.998 215.922 110.585 214.331 109.786C212.026 108.639 210.165 106.756 209.038 104.433C208.238 102.838 207.821 101.076 207.822 99.2899L207.743 74.2559H214.272L214.353 99.9219C214.512 101.051 215.033 102.097 215.837 102.902C216.641 103.707 217.683 104.226 218.807 104.383L237.98 104.433Z" fill="#F8F9FA"/>
<path d="M94.3831 0.0283203H92.6682V0.0720582C88.3945 0.211737 84.1546 0.883835 80.0458 2.07294C80.0458 2.07294 68.0958 4.04103 57.1143 15.8495C56.0832 16.768 55.1161 17.7566 54.2199 18.8082C52.1559 21.2209 50.4541 23.9239 49.1687 26.8315C49.0403 27.1223 48.9097 27.4131 48.7879 27.7062C47.456 30.9586 46.7893 34.117 46.7879 37.1814C46.7862 38.5604 46.8814 39.9379 47.073 41.3034C47.4647 44.0959 48.2677 46.5254 49.5039 48.5744C51.2628 51.5242 53.7375 53.9777 56.6965 55.7054C59.826 57.5133 63.2454 58.7588 66.8009 59.3858C70.605 60.094 74.4663 60.4461 78.3352 60.4376H104.189L115.288 30.4024H105.06C100.901 30.4024 98.2721 31.7823 96.7509 33.0265C96.0664 33.5575 95.4775 34.2025 95.0099 34.9334L90.9663 44.1703H87.8173C88.1763 32.2131 78.8031 33.2168 78.8031 33.2168C68.7922 33.8291 69.5779 43.1709 69.6801 44.0916L69.691 44.1703H65.7367C61.0338 44.2403 61.2471 41.8086 61.2471 41.8086V35.2898C61.3515 33.0265 61.9783 31.557 62.6029 30.6342C62.9459 30.0852 63.4079 29.621 63.9544 29.2763C64.2003 29.1254 64.4527 28.9767 64.7117 28.8389C65.8235 28.2256 66.982 27.702 68.1763 27.2732C74.7661 24.8677 82.7574 24.4872 82.7574 24.4872C86.0871 21.5439 88.8249 19.4752 91.1491 17.9838L91.3232 17.8745C91.7846 17.5815 92.2286 17.3125 92.6573 17.061C96.9076 14.5943 99.6867 14.1198 102.379 13.2976C103.883 12.8406 106.222 12.6044 108.823 12.4994C112.505 12.3507 116.696 12.471 119.756 12.6131C120.522 12.6459 121.214 12.6809 121.813 12.7159L126.496 0.0326914L94.3831 0.0283203ZM71.3776 42.3946C71.3716 40.5483 72.0443 38.7647 73.2667 37.3862C74.4891 36.0077 76.175 35.1312 78.001 34.9251C79.827 34.7189 81.6645 35.1975 83.1608 36.2691C84.6572 37.3407 85.707 38.9298 86.1089 40.7314C86.5108 42.5331 86.2365 44.4204 85.3385 46.0312C84.4406 47.6421 82.9822 48.8631 81.2433 49.4598C79.5045 50.0566 77.6075 49.9871 75.9165 49.2647C74.2255 48.5424 72.8595 47.218 72.0806 45.5458C71.6202 44.5595 71.3803 43.484 71.3776 42.3946Z" fill="#F8F9FA"/>
<path d="M191.21 -4.68222e-05L186.098 13.8268H147.058C143.204 13.8268 138.825 17.037 137.393 20.9076L134.736 28.0977H173.558L168.444 41.9267H129.513L123.106 60.4442H109.454L123.632 20.8988C127.887 9.39428 140.607 -0.00878906 152.061 -0.00878906L191.21 -4.68222e-05Z" fill="#F8F9FA"/>
</g>
<defs>
<clipPath id="clip0_351_1696">
<rect width="238" height="111" fill="white"/>
</clipPath>
</defs>
</svg>
