<svg width="24" height="21" viewBox="0 0 24 21" fill="none" xmlns="http://www.w3.org/2000/svg">
<path d="M4.34218 2.06428C3.9858 2.19089 3.70445 2.58009 3.70445 2.95522C3.70445 3.14279 3.84043 3.50386 3.92953 3.56013C3.95766 3.57888 3.92484 3.79459 3.83106 4.15096L3.681 4.71366L3.51688 4.7418C2.93073 4.84965 2.52278 5.33732 2.52278 5.93285C2.52747 7.11452 4.1171 7.54124 4.71262 6.519C4.87674 6.24702 4.85799 6.00319 4.67511 5.8672C4.55319 5.77811 4.53443 5.77811 4.4172 5.84376C4.34687 5.88127 4.23901 6.00319 4.17805 6.11573C3.97642 6.48617 3.55908 6.55182 3.31056 6.2564C3.16519 6.08759 3.14644 5.7828 3.26367 5.6093C3.37152 5.45924 3.62473 5.36077 3.82637 5.39828C3.93422 5.41704 4.02331 5.40297 4.09365 5.35608C4.2015 5.28574 4.23432 5.19196 4.45472 4.34322L4.51099 4.1369L6.66332 6.28923L8.81565 8.44156V9.17776V9.91865H5.19561C2.41024 9.92334 1.55212 9.93272 1.49585 9.97961C1.39268 10.0593 0 12.7884 0 12.9103C0 12.9666 0.0422026 13.0557 0.0937835 13.1073C0.182878 13.1964 0.248526 13.2011 2.19453 13.2011H4.2015L4.52974 13.5199C4.77358 13.7638 4.92832 13.8716 5.13465 13.9467C5.90367 14.2374 6.66801 14.0545 7.24477 13.4496L7.48392 13.2011H13.0312H18.5785L18.8458 13.473C19.6289 14.2843 20.8246 14.2843 21.5983 13.473L21.8562 13.2011H22.5784C23.3474 13.2011 23.4881 13.1729 23.6991 12.976C24.0883 12.6102 24.1024 12.0241 23.7272 11.6583L23.549 11.4848L23.5303 10.336L23.5162 9.18714L23.3615 8.87765C22.9254 7.9914 21.95 7.61157 19.6242 7.43339C19.2397 7.40056 18.9068 7.36305 18.888 7.34898C18.8739 7.33022 18.6957 7.03012 18.4988 6.68312C17.7251 5.33732 16.9607 4.39949 16.3652 4.08063L16.1073 3.93995L14.3629 3.92588L12.6139 3.91181L12.4967 4.02904L12.3794 4.14627V7.03481V9.91865H11.9105H11.4416V8.40405C11.4416 7.55999 11.4228 6.8191 11.3947 6.73001C11.3197 6.45804 11.0946 6.14855 10.8554 5.98912C10.41 5.6937 9.86133 5.6937 9.4018 5.98443L9.17671 6.1298L7.15568 4.11345C5.43944 2.4019 5.10651 2.08773 4.94708 2.04552C4.70324 1.97987 4.56726 1.98456 4.34218 2.06428ZM15.9338 5.06066C16.1073 5.14976 16.5293 5.60461 16.8107 6.00319C17.153 6.47679 17.772 7.52717 17.772 7.62095C17.772 7.66784 17.7298 7.75694 17.6735 7.82728L17.5797 7.94919H15.7838C14.241 7.94919 13.9784 7.93982 13.8893 7.87417C13.7862 7.80383 13.7862 7.79445 13.7862 6.48617C13.7862 5.32326 13.7956 5.15445 13.8659 5.07942C13.9362 5.00439 14.03 4.99501 14.8741 4.99501C15.5821 4.99501 15.84 5.00908 15.9338 5.06066ZM15.9151 8.57754C16.0932 8.65257 16.1636 8.83076 16.0792 8.99488C15.9901 9.159 15.9526 9.16838 15.3946 9.16838C14.9069 9.16838 14.8647 9.16369 14.799 9.06522C14.6584 8.86358 14.7287 8.62913 14.9585 8.54472C15.1038 8.49314 15.7603 8.5119 15.9151 8.57754ZM22.3252 8.68071C22.644 8.87765 22.8832 9.26685 22.8832 9.58572C22.8832 9.67481 22.8597 9.68419 22.5596 9.68419C22.2548 9.68419 22.2267 9.67481 22.1141 9.53883C22.0016 9.40753 21.9922 9.36064 21.9922 8.95737C21.9922 8.465 21.9829 8.46969 22.3252 8.68071ZM4.65166 10.7158C4.54381 10.7908 4.37969 10.969 4.28591 11.1097L4.1171 11.3629L3.35745 11.3817C2.60249 11.3957 2.59311 11.3957 2.36803 11.5364C2.07262 11.7193 1.90849 12.01 1.93194 12.3242L1.94601 12.5446H1.42082C1.13009 12.5446 0.890943 12.5352 0.890943 12.5211C0.890943 12.5118 1.11602 12.0663 1.388 11.5364L1.88505 10.5751H3.36214H4.84392L4.65166 10.7158ZM12.3794 10.9737V11.3723H9.97388H7.56364L7.41359 11.1378C7.33387 11.0112 7.17444 10.833 7.07128 10.7393L6.87433 10.5751H9.62688H12.3794V10.9737ZM6.44293 11.1097C7.29636 11.6068 7.29167 12.7978 6.42886 13.262C5.98808 13.5012 5.55667 13.4777 5.12996 13.187C4.5063 12.765 4.42658 11.8647 4.96584 11.3254C5.24719 11.0441 5.50509 10.9456 5.91774 10.969C6.1522 10.9784 6.28349 11.0159 6.44293 11.1097ZM20.6371 11.0206C20.9278 11.1191 21.1763 11.3348 21.3264 11.6255C21.4248 11.8178 21.4483 11.9256 21.4483 12.1929C21.4483 12.6806 21.2373 13.0416 20.8293 13.262C19.9478 13.7403 18.9114 13.0698 19.0052 12.0757C19.0756 11.2644 19.8633 10.758 20.6371 11.0206Z" fill="url(#paint0_linear_200_2993)"/>
<defs>
<linearGradient id="paint0_linear_200_2993" x1="12" y1="14.082" x2="12" y2="-43.0238" gradientUnits="userSpaceOnUse">
<stop stop-color="#004B3B"/>
<stop offset="1" stop-color="#8AACA5"/>
</linearGradient>
</defs>
</svg>
