<svg width="43" height="54" viewBox="0 0 43 54" fill="none" xmlns="http://www.w3.org/2000/svg">
<path d="M29.5156 1.25C30.8256 1.25 31.8161 2.99402 32.1631 5.91602C32.2781 6.88001 32.36 7.57702 31.833 8.16602C31.308 8.75102 30.5946 8.75098 29.5156 8.75098V8.75H28.25L28.25 18.6465C28.25 20.371 28.25 21.3218 27.4443 21.8408C26.3916 22.5187 25.1686 21.6634 24.4375 21.1514C24.3216 21.0704 24.2119 20.9934 24.1289 20.9414C23.8739 20.7804 23.5848 20.5979 23.5078 20.5889H23.5068C23.4295 20.5891 23.08 20.8095 22.8711 20.9414L20.96 22.1465C20.3841 22.5104 20.0039 22.75 19.5 22.75V22.751C18.9961 22.751 18.6159 22.5114 18.041 22.1484L16.1289 20.9424C15.8739 20.7814 15.5848 20.5988 15.5078 20.5898H15.5068C15.4295 20.5901 15.08 20.8105 14.8711 20.9424C14.7881 20.9944 14.6794 21.0714 14.5635 21.1523C13.8325 21.6643 12.6087 22.5198 11.5557 21.8418C10.7501 21.3218 10.75 20.3719 10.75 18.6465L10.75 8.05371C10.75 5.09419 10.7501 3.46434 11.8467 2.35938C12.9447 1.25037 14.563 1.25 17.5 1.25L29.5156 1.25ZM17.5 2.75C14.883 2.75 13.5701 2.75006 12.9121 3.41504C12.2501 4.08202 12.25 5.40987 12.25 8.05371L12.25 18.6465C12.25 19.5053 12.25 20.392 12.377 20.585C12.48 20.636 12.7961 20.5559 13.7031 19.9219C13.8341 19.8299 13.9583 19.7438 14.0713 19.6719C14.624 19.323 15.0229 19.069 15.5586 19.0898C16.0315 19.1058 16.3889 19.331 16.9287 19.6719L18.8398 20.877C19.1118 21.049 19.419 21.242 19.5 21.249C19.581 21.242 19.8882 21.0479 20.1582 20.8779L22.0713 19.6719C22.625 19.323 23.0239 19.069 23.5586 19.0898C24.0315 19.1058 24.3889 19.331 24.9287 19.6719C25.0417 19.7428 25.1659 19.8299 25.2969 19.9219C26.2029 20.5559 26.519 20.636 26.623 20.585C26.75 20.391 26.75 19.5043 26.75 18.6465V8C26.75 6.07877 27.0528 4.07111 27.6924 2.75L17.5 2.75ZM17.5 9.25C17.9142 9.25 18.25 9.58579 18.25 10C18.25 10.4142 17.9142 10.75 17.5 10.75H15.5C15.0858 10.75 14.75 10.4142 14.75 10C14.75 9.58579 15.0858 9.25 15.5 9.25H17.5ZM29.5156 2.75293C29.1835 2.87479 28.3867 4.38257 28.2656 7.25H29.5156C30.0154 7.25 30.6383 7.24994 30.7158 7.16406C30.7908 7.08106 30.7309 6.57877 30.6729 6.09277C30.3978 3.77796 29.7316 2.83793 29.5156 2.75293ZM23.5 5.25C23.9142 5.25 24.25 5.58579 24.25 6C24.25 6.41421 23.9142 6.75 23.5 6.75L15.5 6.75C15.0858 6.75 14.75 6.41421 14.75 6C14.75 5.58579 15.0858 5.25 15.5 5.25L23.5 5.25Z" fill="#8AACA5"/>
<path d="M6.27549 49.304C5.26749 49.304 4.39949 49.1407 3.67149 48.814C2.94349 48.4967 2.38349 48.03 1.99149 47.414C1.59949 46.8073 1.40349 46.0653 1.40349 45.188C1.40349 44.8707 1.43149 44.5487 1.48749 44.222C1.54349 43.8953 1.62749 43.5967 1.73949 43.326C1.86083 43.046 2.01016 42.822 2.18749 42.654C2.37416 42.486 2.59816 42.402 2.85949 42.402C2.97149 42.402 3.06949 42.416 3.15349 42.444C3.24683 42.472 3.32616 42.5093 3.39149 42.556C3.45683 42.5933 3.50349 42.6353 3.53149 42.682C3.34483 42.878 3.15349 43.2 2.95749 43.648C2.76149 44.096 2.66349 44.6327 2.66349 45.258C2.66349 45.6687 2.72416 46.056 2.84549 46.42C2.96683 46.7933 3.16749 47.12 3.44749 47.4C3.72749 47.6893 4.10083 47.9133 4.56749 48.072C5.04349 48.24 5.63616 48.324 6.34549 48.324C7.18549 48.324 7.87149 48.2167 8.40349 48.002C8.94483 47.7873 9.36483 47.5167 9.66349 47.19C9.96216 46.8727 10.1675 46.5507 10.2795 46.224C10.3915 45.8973 10.4475 45.622 10.4475 45.398L11.7075 45.37C11.7075 46.1353 11.4742 46.812 11.0075 47.4C10.5502 47.9973 9.91083 48.464 9.08949 48.8C8.27749 49.136 7.33949 49.304 6.27549 49.304ZM9.57949 46C9.27149 46 9.02416 45.958 8.83749 45.874C8.66016 45.7807 8.52483 45.6687 8.43149 45.538C8.34749 45.398 8.30083 45.2533 8.29149 45.104C8.28216 44.9453 8.30083 44.8053 8.34749 44.684C8.45016 44.7493 8.60883 44.824 8.82349 44.908C9.03816 44.9827 9.28549 45.02 9.56549 45.02H12.9675V46H9.57949ZM12.9675 46V45.02C13.0795 45.02 13.1542 45.062 13.1915 45.146C13.2288 45.23 13.2475 45.3513 13.2475 45.51C13.2475 45.6593 13.2288 45.7807 13.1915 45.874C13.1542 45.958 13.0795 46 12.9675 46ZM7.39549 51.754C7.18083 51.754 6.99416 51.6747 6.83549 51.516C6.67683 51.3573 6.59749 51.1707 6.59749 50.956C6.59749 50.732 6.67683 50.5407 6.83549 50.382C6.99416 50.2233 7.18083 50.144 7.39549 50.144C7.61949 50.144 7.80616 50.2233 7.95549 50.382C8.11416 50.5407 8.19349 50.732 8.19349 50.956C8.19349 51.1707 8.11416 51.3573 7.95549 51.516C7.80616 51.6747 7.61949 51.754 7.39549 51.754ZM5.35149 51.754C5.13683 51.754 4.95016 51.6747 4.79149 51.516C4.63283 51.3573 4.55349 51.1707 4.55349 50.956C4.55349 50.732 4.63283 50.5407 4.79149 50.382C4.95016 50.2233 5.13683 50.144 5.35149 50.144C5.57549 50.144 5.76216 50.2233 5.91149 50.382C6.07016 50.5407 6.14949 50.732 6.14949 50.956C6.14949 51.1707 6.07016 51.3573 5.91149 51.516C5.76216 51.6747 5.57549 51.754 5.35149 51.754ZM12.9619 46V45.02H13.8999C14.1986 45.02 14.4459 44.95 14.6419 44.81C14.8379 44.67 14.9872 44.4927 15.0899 44.278C15.2019 44.0633 15.2812 43.8393 15.3279 43.606C15.3839 43.3727 15.4166 43.1627 15.4259 42.976C15.4352 42.78 15.4399 42.64 15.4399 42.556C15.4399 42.304 15.4166 42.0053 15.3699 41.66C15.3232 41.3147 15.2159 40.9553 15.0479 40.582C14.8892 40.2087 14.6232 39.868 14.2499 39.56C14.2966 39.5133 14.3526 39.4713 14.4179 39.434C14.4926 39.3873 14.5766 39.35 14.6699 39.322C14.7632 39.294 14.8706 39.28 14.9919 39.28C15.3186 39.28 15.5892 39.3873 15.8039 39.602C16.0279 39.8167 16.2052 40.0967 16.3359 40.442C16.4666 40.778 16.5599 41.1373 16.6159 41.52C16.6719 41.9027 16.6999 42.2573 16.6999 42.584C16.6999 43.6573 16.4526 44.4973 15.9579 45.104C15.4632 45.7013 14.7772 46 13.8999 46H12.9619ZM12.9619 46C12.8499 46 12.7752 45.958 12.7379 45.874C12.7006 45.7807 12.6819 45.6593 12.6819 45.51C12.6819 45.3513 12.7006 45.23 12.7379 45.146C12.7752 45.062 12.8499 45.02 12.9619 45.02V46ZM16.0559 38.37C15.8412 38.37 15.6546 38.2907 15.4959 38.132C15.3372 37.9733 15.2579 37.7867 15.2579 37.572C15.2579 37.348 15.3372 37.1567 15.4959 36.998C15.6546 36.8393 15.8412 36.76 16.0559 36.76C16.2799 36.76 16.4666 36.8393 16.6159 36.998C16.7746 37.1567 16.8539 37.348 16.8539 37.572C16.8539 37.7867 16.7746 37.9733 16.6159 38.132C16.4666 38.2907 16.2799 38.37 16.0559 38.37ZM14.0119 38.37C13.7972 38.37 13.6106 38.2907 13.4519 38.132C13.2932 37.9733 13.2139 37.7867 13.2139 37.572C13.2139 37.348 13.2932 37.1567 13.4519 36.998C13.6106 36.8393 13.7972 36.76 14.0119 36.76C14.2359 36.76 14.4226 36.8393 14.5719 36.998C14.7306 37.1567 14.8099 37.348 14.8099 37.572C14.8099 37.7867 14.7306 37.9733 14.5719 38.132C14.4226 38.2907 14.2359 38.37 14.0119 38.37ZM21.5864 46C21.101 46 20.667 45.888 20.2844 45.664C19.911 45.4307 19.617 45.118 19.4024 44.726C19.1877 44.3247 19.0804 43.872 19.0804 43.368V38.832C19.0804 38.5427 19.0384 38.2813 18.9544 38.048C18.8797 37.8147 18.7817 37.6187 18.6604 37.46C18.539 37.3013 18.4224 37.1847 18.3104 37.11C18.3477 37.0633 18.4084 37.012 18.4924 36.956C18.5857 36.9 18.6977 36.8533 18.8284 36.816C18.959 36.7787 19.0944 36.76 19.2344 36.76C19.4117 36.76 19.5844 36.8067 19.7524 36.9C19.9204 36.984 20.0604 37.138 20.1724 37.362C20.2844 37.586 20.3404 37.9033 20.3404 38.314V43.368C20.3404 43.6293 20.3824 43.886 20.4664 44.138C20.5597 44.39 20.6997 44.6 20.8864 44.768C21.073 44.936 21.3064 45.02 21.5864 45.02H22.0204V46H21.5864ZM22.0204 46V45.02C22.1324 45.02 22.207 45.062 22.2444 45.146C22.2817 45.23 22.3004 45.3513 22.3004 45.51C22.3004 45.6593 22.2817 45.7807 22.2444 45.874C22.207 45.958 22.1324 46 22.0204 46ZM22.0264 46V45.02H22.3764C22.6657 45.02 22.899 44.936 23.0764 44.768C23.263 44.6 23.3984 44.39 23.4824 44.138C23.5757 43.886 23.6224 43.6293 23.6224 43.368V39.896C23.6224 39.6627 23.683 39.504 23.8044 39.42C23.9257 39.3267 24.075 39.28 24.2524 39.28C24.4297 39.28 24.579 39.3267 24.7004 39.42C24.8217 39.504 24.8824 39.6627 24.8824 39.896V43.368C24.8824 43.872 24.775 44.3247 24.5604 44.726C24.3457 45.118 24.0517 45.4307 23.6784 45.664C23.305 45.888 22.871 46 22.3764 46H22.0264ZM26.1284 46C25.643 46 25.209 45.888 24.8264 45.664C24.453 45.4307 24.159 45.118 23.9444 44.726C23.7297 44.3247 23.6224 43.872 23.6224 43.368H24.8824C24.8824 43.6293 24.9244 43.886 25.0084 44.138C25.1017 44.39 25.2417 44.6 25.4284 44.768C25.615 44.936 25.8484 45.02 26.1284 45.02H26.6324V46H26.1284ZM26.6324 46V45.02C26.7444 45.02 26.819 45.062 26.8564 45.146C26.8937 45.23 26.9124 45.3513 26.9124 45.51C26.9124 45.6593 26.8937 45.7807 26.8564 45.874C26.819 45.958 26.7444 46 26.6324 46ZM22.0264 46C21.9144 46 21.8397 45.958 21.8024 45.874C21.765 45.7807 21.7464 45.6593 21.7464 45.51C21.7464 45.3513 21.765 45.23 21.8024 45.146C21.8397 45.062 21.9144 45.02 22.0264 45.02V46ZM24.2664 48.73C24.033 48.73 23.837 48.6507 23.6784 48.492C23.5197 48.3333 23.4404 48.1467 23.4404 47.932C23.4404 47.708 23.5197 47.5167 23.6784 47.358C23.837 47.1993 24.033 47.12 24.2664 47.12C24.481 47.12 24.6677 47.1993 24.8264 47.358C24.985 47.5167 25.0644 47.708 25.0644 47.932C25.0644 48.1467 24.985 48.3333 24.8264 48.492C24.6677 48.6507 24.481 48.73 24.2664 48.73ZM30.7358 46C30.2505 46 29.8165 45.888 29.4338 45.664C29.0605 45.4307 28.7665 45.118 28.5518 44.726C28.3371 44.3247 28.2298 43.872 28.2298 43.368H29.4898C29.4898 43.6293 29.5318 43.886 29.6158 44.138C29.7091 44.39 29.8491 44.6 30.0358 44.768C30.2225 44.936 30.4558 45.02 30.7358 45.02H31.2398V46H30.7358ZM26.6338 46V45.02H26.9838C27.2731 45.02 27.5065 44.936 27.6838 44.768C27.8705 44.6 28.0058 44.39 28.0898 44.138C28.1831 43.886 28.2298 43.6293 28.2298 43.368V38.832C28.2298 38.5427 28.1878 38.2813 28.1038 38.048C28.0291 37.8147 27.9311 37.6187 27.8098 37.46C27.6885 37.3013 27.5718 37.1847 27.4598 37.11C27.4971 37.0633 27.5578 37.012 27.6418 36.956C27.7351 36.9 27.8425 36.8533 27.9638 36.816C28.0945 36.7787 28.2298 36.76 28.3698 36.76C28.5471 36.76 28.7198 36.8067 28.8878 36.9C29.0651 36.984 29.2098 37.138 29.3218 37.362C29.4338 37.586 29.4898 37.9033 29.4898 38.314V43.368C29.4898 43.872 29.3825 44.3247 29.1678 44.726C28.9531 45.118 28.6591 45.4307 28.2858 45.664C27.9125 45.888 27.4785 46 26.9838 46H26.6338ZM26.6338 46C26.5218 46 26.4471 45.958 26.4098 45.874C26.3725 45.7807 26.3538 45.6593 26.3538 45.51C26.3538 45.3513 26.3725 45.23 26.4098 45.146C26.4471 45.062 26.5218 45.02 26.6338 45.02V46ZM31.2398 46V45.02C31.3518 45.02 31.4265 45.062 31.4638 45.146C31.5011 45.23 31.5198 45.3513 31.5198 45.51C31.5198 45.6593 31.5011 45.7807 31.4638 45.874C31.4265 45.958 31.3518 46 31.2398 46ZM31.2412 46V45.02H38.1432C38.7125 45.02 39.1559 44.908 39.4732 44.684C39.7999 44.46 40.0285 44.1847 40.1592 43.858C40.2899 43.522 40.3552 43.1907 40.3552 42.864C40.3552 42.2667 40.2105 41.7767 39.9212 41.394C39.6412 41.0113 39.2865 40.7267 38.8572 40.54C38.4279 40.3533 37.9985 40.26 37.5692 40.26C37.1679 40.26 36.7945 40.33 36.4492 40.47C36.1132 40.61 35.8052 40.7967 35.5252 41.03C35.2545 41.254 35.0119 41.4967 34.7972 41.758C34.5919 42.0193 34.4192 42.2713 34.2792 42.514C34.1392 42.7567 34.0365 42.962 33.9712 43.13L34.0692 41.884C34.1812 41.604 34.3492 41.3147 34.5732 41.016C34.7972 40.708 35.0679 40.4233 35.3852 40.162C35.7119 39.9007 36.0852 39.6907 36.5052 39.532C36.9252 39.364 37.3872 39.28 37.8912 39.28C38.3299 39.28 38.7639 39.35 39.1932 39.49C39.6319 39.63 40.0332 39.8493 40.3972 40.148C40.7705 40.4467 41.0645 40.8247 41.2792 41.282C41.5032 41.7393 41.6152 42.29 41.6152 42.934C41.6152 43.3073 41.5685 43.676 41.4752 44.04C41.3819 44.404 41.2232 44.7353 40.9992 45.034C40.7752 45.3233 40.4719 45.5567 40.0892 45.734C39.7159 45.9113 39.2445 46 38.6752 46H31.2412ZM32.8372 45.566V38.832C32.8372 38.5427 32.7952 38.2813 32.7112 38.048C32.6365 37.8147 32.5385 37.6187 32.4172 37.46C32.2959 37.3013 32.1792 37.1847 32.0672 37.11C32.1045 37.0633 32.1652 37.012 32.2492 36.956C32.3425 36.9 32.4545 36.8533 32.5852 36.816C32.7159 36.7787 32.8512 36.76 32.9912 36.76C33.1685 36.76 33.3412 36.8067 33.5092 36.9C33.6772 36.984 33.8172 37.138 33.9292 37.362C34.0412 37.586 34.0972 37.9033 34.0972 38.314V45.566H32.8372ZM31.2412 46C31.1292 46 31.0545 45.958 31.0172 45.874C30.9799 45.7807 30.9612 45.6593 30.9612 45.51C30.9612 45.3513 30.9799 45.23 31.0172 45.146C31.0545 45.062 31.1292 45.02 31.2412 45.02V46Z" fill="#8AACA5"/>
</svg>
