<svg width="72" height="48" viewBox="0 0 72 48" fill="none" xmlns="http://www.w3.org/2000/svg">
<path d="M12.3451 5.31743V5.81421H15.9467H19.5484V5.31743V4.82065H15.9467H12.3451V5.31743Z" fill="url(#paint0_linear_193_1478)"/>
<path d="M6.90548 7.87577C5.5766 8.22351 4.55821 9.29159 4.27256 10.608C4.18562 11.0179 4.14836 13.2906 4.1732 17.24L4.21046 23.2635L4.55821 23.9714C4.93079 24.7289 5.47724 25.2754 6.29693 25.7101L6.81854 25.9957L22.4049 26.033C40.0405 26.0702 38.7613 26.1323 39.9412 25.0767C40.3013 24.7538 40.6988 24.2446 40.8602 23.8844L41.1583 23.2635V16.9792C41.1583 9.9374 41.1707 10.0119 40.2765 8.99352C40.0033 8.68303 39.4692 8.28561 39.0718 8.0869L38.3639 7.73915L22.9638 7.71432C9.88615 7.68948 7.46435 7.71432 6.90548 7.87577ZM23.7338 9.08045C24.1188 9.29158 28.8879 15.9857 29.1487 16.706C29.4964 17.6002 29.5585 19.1402 29.2977 20.0344C28.7016 22.096 27.2485 23.6609 25.3111 24.3191C20.5048 25.9709 15.6363 21.1894 17.4744 16.6315C17.7849 15.8615 22.3428 9.44062 22.8148 9.10529C23.1377 8.88174 23.3612 8.86932 23.7338 9.08045Z" fill="url(#paint1_linear_193_1478)"/>
<path d="M21.3493 14.1353C20.3309 15.5759 19.3746 16.9793 19.2504 17.265C18.9151 17.9977 18.9275 19.3266 19.2752 20.1339C19.623 20.9039 20.5669 21.9099 21.3244 22.2824C24.0195 23.6486 27.2733 21.8974 27.5838 18.9292C27.708 17.7866 27.4224 17.2153 25.2987 14.2595C24.243 12.794 23.3364 11.5769 23.2991 11.5645C23.2495 11.552 22.3801 12.7071 21.3493 14.1353ZM26.7517 17.9232C27.0001 18.184 27.025 18.3082 26.9629 18.8919C26.8387 20.109 25.9941 21.3261 24.864 21.9099C24.6404 22.0216 24.094 22.1458 23.6345 22.1831C22.8644 22.2328 22.8024 22.2203 22.554 21.8974C22.4049 21.7111 22.2807 21.4503 22.2807 21.3137C22.2807 20.9536 22.9514 20.345 23.3364 20.345C24.2182 20.345 24.9882 19.6371 25.0999 18.6932C25.2366 17.6748 26.1308 17.2526 26.7517 17.9232Z" fill="url(#paint2_linear_193_1478)"/>
<path d="M45.3809 27.2998V39.4708H47.8399H50.299L50.5225 38.7257C51.6651 34.9253 56.1485 33.348 59.4893 35.5711C60.6195 36.3163 61.6627 37.8315 61.849 38.9989L61.936 39.4708H64.7179H67.4999L67.4626 35.2731L67.4254 31.0753L67.1149 30.4916C66.941 30.1687 66.3573 29.3241 65.8108 28.6038L64.8173 27.3122L59.4024 27.2998C53.3541 27.2998 53.0809 27.2625 52.2116 26.4801C51.2801 25.6356 51.2925 25.6852 51.218 20.4939L51.1559 15.8491L50.7461 15.4889L50.3486 15.1287H47.8647H45.3809V27.2998Z" fill="url(#paint3_linear_193_1478)"/>
<path d="M53.0808 21.1522C53.0808 24.9029 53.1181 25.0892 53.9253 25.3003C54.4221 25.4493 63.6373 25.499 63.6373 25.3624C63.6373 25.3127 62.9294 23.9466 62.0601 22.3072C59.688 17.8487 59.8121 17.9356 55.8503 17.8859L53.0808 17.8487V21.1522Z" fill="url(#paint4_linear_193_1478)"/>
<path d="M3.90002 34.8757V39.4833L4.59551 39.446L5.291 39.4088L5.52697 38.6512C6.5702 35.2482 10.5196 33.5468 13.699 35.1365C15.1645 35.8692 16.3319 37.2354 16.7417 38.7133L16.9529 39.4709H23.5103H30.0678L30.1547 38.9989C30.341 37.8315 31.3842 36.3163 32.5144 35.5712C35.8552 33.3605 40.3138 34.9129 41.4564 38.7009L41.6924 39.4709H42.6114H43.518V34.8757V30.2805H23.709H3.90002V34.8757Z" fill="url(#paint5_linear_193_1478)"/>
<path d="M9.42666 36.838C8.58214 37.2479 7.84939 37.9806 7.45197 38.8375C7.25326 39.2722 7.19116 39.6448 7.19116 40.4645C7.19116 41.3711 7.24084 41.6071 7.53891 42.166C7.98601 43.0229 8.63182 43.6563 9.47634 44.0537C10.4699 44.5132 11.8609 44.5008 12.8668 44.0165C14.6552 43.1595 15.537 40.9613 14.8664 39.0363C14.5683 38.1793 13.376 36.9746 12.5439 36.7014C11.5504 36.3661 10.3209 36.4158 9.42666 36.838Z" fill="url(#paint6_linear_193_1478)"/>
<path d="M34.1041 36.8628C32.6386 37.5956 31.9059 38.7754 31.9059 40.4024C31.9059 41.2221 31.968 41.5201 32.2288 42.079C32.6386 42.9484 33.3341 43.6439 34.2035 44.0537C35.197 44.5256 36.588 44.5132 37.5816 44.0289C38.4137 43.619 39.0843 42.9111 39.5066 41.9921C39.7798 41.4084 39.8171 41.1848 39.7674 40.303C39.7177 39.0735 39.4196 38.3656 38.5875 37.5459C37.8424 36.8256 36.973 36.4903 35.7683 36.4903C35.0107 36.4903 34.7375 36.5524 34.1041 36.8628Z" fill="url(#paint7_linear_193_1478)"/>
<path d="M54.7824 36.6764C53.7391 37.0614 52.7704 38.0426 52.3978 39.0982C52.2985 39.3839 52.2115 40.0297 52.2115 40.5264C52.2115 41.2716 52.2736 41.5448 52.5841 42.1782C53.3169 43.6437 54.4967 44.3765 56.1237 44.3765C57.3035 44.3765 58.2101 44.0163 58.9801 43.2463C59.7501 42.4515 60.0979 41.5697 60.0979 40.4022C60.0855 38.7629 59.3527 37.5955 57.8997 36.8627C57.2414 36.5398 57.0055 36.4901 56.1982 36.5025C55.6766 36.5025 55.0432 36.5895 54.7824 36.6764Z" fill="url(#paint8_linear_193_1478)"/>
<defs>
<linearGradient id="paint0_linear_193_1478" x1="15.9467" y1="5.81421" x2="15.9467" y2="1.11814" gradientUnits="userSpaceOnUse">
<stop stop-color="#004B3B"/>
<stop offset="1" stop-color="#8AACA5"/>
</linearGradient>
<linearGradient id="paint1_linear_193_1478" x1="22.662" y1="26.0492" x2="22.662" y2="-60.6502" gradientUnits="userSpaceOnUse">
<stop stop-color="#004B3B"/>
<stop offset="1" stop-color="#8AACA5"/>
</linearGradient>
<linearGradient id="paint2_linear_193_1478" x1="23.3074" y1="22.7538" x2="23.3074" y2="-30.1333" gradientUnits="userSpaceOnUse">
<stop stop-color="#004B3B"/>
<stop offset="1" stop-color="#8AACA5"/>
</linearGradient>
<linearGradient id="paint3_linear_193_1478" x1="56.4404" y1="39.4708" x2="56.4404" y2="-75.5827" gradientUnits="userSpaceOnUse">
<stop stop-color="#004B3B"/>
<stop offset="1" stop-color="#8AACA5"/>
</linearGradient>
<linearGradient id="paint4_linear_193_1478" x1="58.3591" y1="25.4425" x2="58.3591" y2="-10.45" gradientUnits="userSpaceOnUse">
<stop stop-color="#004B3B"/>
<stop offset="1" stop-color="#8AACA5"/>
</linearGradient>
<linearGradient id="paint5_linear_193_1478" x1="23.709" y1="39.4833" x2="23.709" y2="-4.01402" gradientUnits="userSpaceOnUse">
<stop stop-color="#004B3B"/>
<stop offset="1" stop-color="#8AACA5"/>
</linearGradient>
<linearGradient id="paint6_linear_193_1478" x1="11.1409" y1="44.3893" x2="11.1409" y2="7.01211" gradientUnits="userSpaceOnUse">
<stop stop-color="#004B3B"/>
<stop offset="1" stop-color="#8AACA5"/>
</linearGradient>
<linearGradient id="paint7_linear_193_1478" x1="35.846" y1="44.4" x2="35.846" y2="7.01431" gradientUnits="userSpaceOnUse">
<stop stop-color="#004B3B"/>
<stop offset="1" stop-color="#8AACA5"/>
</linearGradient>
<linearGradient id="paint8_linear_193_1478" x1="56.1547" y1="44.3765" x2="56.1547" y2="7.15215" gradientUnits="userSpaceOnUse">
<stop stop-color="#004B3B"/>
<stop offset="1" stop-color="#8AACA5"/>
</linearGradient>
</defs>
</svg>
