<svg width="72" height="37" viewBox="0 0 72 37" fill="none" xmlns="http://www.w3.org/2000/svg">
<path d="M12.7265 0.192719C11.6573 0.572544 10.8133 1.74015 10.8133 2.86555C10.8133 3.42825 11.2213 4.51145 11.4885 4.68026C11.5729 4.73653 11.4745 5.38364 11.1931 6.45277L10.743 8.14087L10.2506 8.22528C8.49215 8.54883 7.26828 10.0119 7.26828 11.7984C7.28235 15.3434 12.0512 16.6236 13.8378 13.5569C14.3302 12.741 14.2739 12.0094 13.7253 11.6015C13.3595 11.3342 13.3032 11.3342 12.9516 11.5311C12.7405 11.6437 12.417 12.0094 12.2341 12.3471C11.6292 13.4584 10.3772 13.6553 9.63162 12.7691C9.19553 12.2627 9.13926 11.3483 9.49095 10.8278C9.8145 10.3776 10.5741 10.0822 11.1791 10.1947C11.5026 10.251 11.7699 10.2088 11.9809 10.0681C12.3045 9.85711 12.4029 9.57576 13.0641 7.02954L13.2329 6.41057L19.6899 12.8676L26.1469 19.3246V21.5332V23.7558H15.2868C6.93066 23.7699 4.3563 23.798 4.18749 23.9387C3.87801 24.1779 -0.300049 32.3652 -0.300049 32.7309C-0.300049 32.8997 -0.173441 33.167 -0.0186983 33.3217C0.248585 33.589 0.44553 33.6031 6.28355 33.6031H12.3045L13.2892 34.5597C14.0207 35.2912 14.4849 35.6147 15.1039 35.8398C17.411 36.712 19.704 36.1634 21.4343 34.3487L22.1517 33.6031H38.7936H55.4355L56.2373 34.419C58.5866 36.8527 62.1738 36.8527 64.495 34.419L65.2687 33.6031H67.4351C69.7422 33.6031 70.1642 33.5187 70.7972 32.9279C71.9648 31.8306 72.007 30.0721 70.8816 28.9749L70.3471 28.4544L70.2908 25.0078L70.2486 21.5613L69.7844 20.6328C68.4761 17.9741 65.55 16.8346 58.5725 16.3C57.419 16.2016 56.4202 16.089 56.3639 16.0468C56.3217 15.9906 55.7872 15.0902 55.1963 14.0492C52.8752 10.0119 50.5822 7.19835 48.7956 6.24176L48.0219 5.81973L42.7888 5.77753L37.5416 5.73532L37.1899 6.08701L36.8382 6.4387V15.1043V23.7558H35.4315H34.0247V19.212C34.0247 16.6799 33.9684 14.4572 33.884 14.1899C33.659 13.374 32.9837 12.4455 32.2663 11.9672C30.9299 11.081 29.284 11.081 27.9053 11.9532L27.2301 12.3893L21.167 6.34023C16.0183 1.20558 15.0195 0.263058 14.5412 0.136448C13.8097 -0.0604973 13.4017 -0.0464287 12.7265 0.192719ZM47.5014 9.18187C48.0219 9.44915 49.288 10.8137 50.132 12.0094C51.159 13.4303 53.0159 16.5814 53.0159 16.8627C53.0159 17.0034 52.8893 17.2707 52.7205 17.4817L52.4391 17.8475H47.0512C42.423 17.8475 41.6352 17.8193 41.368 17.6224C41.0585 17.4114 41.0585 17.3832 41.0585 13.4584C41.0585 9.96965 41.0866 9.46322 41.2976 9.23814C41.5086 9.01306 41.79 8.98492 44.3221 8.98492C46.4463 8.98492 47.22 9.02713 47.5014 9.18187ZM47.4451 19.7325C47.9797 19.9576 48.1907 20.4922 47.9375 20.9845C47.6702 21.4769 47.5577 21.505 45.8836 21.505C44.4206 21.505 44.294 21.491 44.0971 21.1955C43.675 20.5906 43.886 19.8873 44.5754 19.634C45.0114 19.4793 46.9809 19.5356 47.4451 19.7325ZM66.6754 20.042C67.632 20.6328 68.3495 21.8004 68.3495 22.757C68.3495 23.0243 68.2791 23.0524 67.3788 23.0524C66.4644 23.0524 66.38 23.0243 66.0424 22.6164C65.7048 22.2225 65.6766 22.0818 65.6766 20.872C65.6766 19.3949 65.6485 19.409 66.6754 20.042ZM13.6549 26.1473C13.3314 26.3724 12.839 26.907 12.5577 27.329L12.0512 28.0886L9.7723 28.1449C7.50743 28.1871 7.47929 28.1871 6.80405 28.6091C5.9178 29.1578 5.42543 30.0299 5.49577 30.9725L5.53797 31.6336H3.96241C3.09022 31.6336 2.37278 31.6055 2.37278 31.5633C2.37278 31.5352 3.04802 30.1988 3.86394 28.6091L5.3551 25.7253H9.78637H14.2317L13.6549 26.1473ZM36.8382 26.921V28.1168H29.6216H22.3909L21.9407 27.4134C21.7016 27.0336 21.2233 26.499 20.9138 26.2176L20.3229 25.7253H28.5806H36.8382V26.921ZM19.0287 27.329C21.589 28.8201 21.575 32.3933 18.9865 33.786C17.6642 34.5034 16.37 34.4331 15.0898 33.5609C13.2188 32.2948 12.9797 29.5938 14.5975 27.9761C15.4415 27.132 16.2152 26.8366 17.4532 26.907C18.1565 26.9351 18.5504 27.0476 19.0287 27.329ZM61.6111 27.0617C62.4833 27.3571 63.2289 28.0042 63.6791 28.8764C63.9745 29.4532 64.0448 29.7767 64.0448 30.5786C64.0448 32.0416 63.4118 33.1248 62.1879 33.786C59.5432 35.2209 56.4343 33.2092 56.7156 30.2269C56.9266 27.7932 59.29 26.2739 61.6111 27.0617Z" fill="url(#paint0_linear_193_1496)"/>
<defs>
<linearGradient id="paint0_linear_193_1496" x1="35.7" y1="36.246" x2="35.7" y2="-135.072" gradientUnits="userSpaceOnUse">
<stop stop-color="#004B3B"/>
<stop offset="1" stop-color="#8AACA5"/>
</linearGradient>
</defs>
</svg>
